<svg version="1.0" id="Capa_1" xmlns="http://www.w3.org/2000/svg" xmlns:xlink="http://www.w3.org/1999/xlink" x="0px" y="0px" width="1200px" height="1199.999px" viewBox="0 0 1200 1199.999" enable-background="new 0 0 1200 1199.999" xml:space="preserve">
<g>
	<path fill="#99287B" d="M247.763,641.891l0.734,327.187c0.221,72.08,59.053,130.922,131.396,130.922c0,0,0,0,0.015,0l441.566-1.347&#10;&#9;&#9;c72.241-0.161,130.689-59.178,130.541-131.442L951,640.136v-0.008c0-35.004-13.626-67.893-38.46-92.588&#10;&#9;&#9;c-24.746-24.599-57.45-38.147-92.697-38.147l-360.886,0.859c-1.072-9.113-1.561-16.962-1.561-24.496l-0.31-92.771&#10;&#9;&#9;c-0.191-99.381,61.541-180.353,137.938-180.5c58.789,0,111.221,49,130.342,121.475c1.19,8.9,5.919,10.377,8.607,10.471&#10;&#9;&#9;c2.732,0.038,7.448-3.648,7.77-10.734l0.015-0.558l-0.132-0.544c-20.633-81.426-79.539-136.139-146.993-136.139&#10;&#9;&#9;c-84.885,0.176-153.778,88.351-153.572,196.573l0.338,92.764c0,10.023,0.836,20.693,2.614,33.602l0.968,6.918l375.377-0.889&#10;&#9;&#9;c30.576,0,59.36,11.888,81.067,33.485c21.809,21.69,33.867,50.557,33.954,81.265l0.808,326.963&#10;&#9;&#9;c0.132,63.428-51.357,115.146-114.771,115.27l-441.772,1.146c-63.282,0-114.918-51.475-115.109-114.735L263.8,641.84&#10;&#9;&#9;c-0.206-57.225,42.633-106.121,99.63-113.737l6.976-0.932l-0.368-139.591c-0.322-149.351,100.336-271.127,224.859-271.45&#10;&#9;&#9;c122.805,0,223.228,119.221,225.285,267.396l-59.935,0.104c-6.154,0.94-8.576,5.301-8.21,8.958&#10;&#9;&#9;c0.352,3.671,3.679,7.203,8.878,7.035L836,399.527v-13.151C836,228.522,727.418,100.1,594.244,100.1&#10;&#9;&#9;c-132.879,0.352-240.642,129.325-240.29,287.508l0.339,125.736C293.113,524.909,247.557,579.607,247.763,641.891z" style="fill: rgb(224, 135, 9);"/>
	<path fill="#99287B" d="M692.134,728.466c-0.029-23.22-9.119-45.401-25.584-61.79c-16.389-16.324-38.183-25.677-61.372-25.677&#10;&#9;&#9;c-0.044,0-0.089,0-0.147,0c-23.233,0-45.057,9.543-61.446,26c-16.375,16.484-25.349,38.524-25.26,61.714&#10;&#9;&#9;c0,28.954,15.186,56.539,39.799,72.474l-23.439,111.366l-0.132,1.36c0.147,47.956,32.339,86.99,71.932,86.99&#10;&#9;&#9;c16.61-0.038,32.78-7.103,45.526-19.91c16.61-16.669,26.039-41.537,25.818-68.932l-22-112.869&#10;&#9;&#9;C678.741,782.707,692.267,756.442,692.134,728.466z M576.187,793.216l-5.169-2.878c-22.616-12.556-36.672-36.106-36.672-61.476&#10;&#9;&#9;c-0.059-18.931,7.27-36.751,20.604-50.175c13.365-13.431,31.164-20.854,50.36-20.913c18.827,0,36.568,7.328,49.932,20.64&#10;&#9;&#9;c13.437,13.38,20.839,31.172,20.869,50.102c0.117,24.232-12.204,46.629-32.942,59.905l-3.714,2.349l0.074,8.643l22.425,114.567&#10;&#9;&#9;c-0.03,21.845-7.784,42.135-21.31,55.712c-9.84,9.913-21.677,15.163-34.336,15.192c-30.43,0-55.426-31.662-55.808-69.773&#10;&#9;&#9;L576.187,793.216z" style="fill: rgb(224, 135, 9);"/>
</g>
</svg>